<svg version="1.1" xmlns="http://www.w3.org/2000/svg" xmlns:xlink="http://www.w3.org/1999/xlink" width="48" height="48"><defs><linearGradient x1="14.22989" y1="14.5608" x2="54.98331" y2="54.6524" gradientUnits="userSpaceOnUse" id="color-1"><stop offset="0" stop-color="#000000" stop-opacity="0.7"></stop><stop offset="1" stop-color="#000000" stop-opacity="0"></stop></linearGradient><clipPath id="clip-1"><rect x="242.95065" y="322.95065" transform="scale(0.04263,0.04263)" width="640" height="480" fill="none" stroke="none" stroke-width="1"></rect></clipPath><linearGradient x1="16.71183" y1="29.46791" x2="17.32316" y2="30.8699" gradientUnits="userSpaceOnUse" id="color-2"><stop offset="0" stop-color="#c8c800"></stop><stop offset="1" stop-color="#ffff49"></stop></linearGradient><filter id="dropshadow-base"><feColorMatrix type="matrix" values="0 0 0 0 0  0 0 0 0 0  0 0 0 0 0  0 0 0 .8 0"></feColorMatrix> <feOffset dx="0" dy="1"></feOffset> <feGaussianBlur stdDeviation="1"></feGaussianBlur> <feComposite in="SourceGraphic"></feComposite></filter><filter id="dropshadow-banner" x="-10%" y="-10%" width="120%" height="130%"><feColorMatrix type="matrix" values="0 0 0 0 0  0 0 0 0 0  0 0 0 0 0  0 0 0 .4 0"></feColorMatrix> <feOffset dx="0" dy="1"></feOffset> <feGaussianBlur stdDeviation="0.5"></feGaussianBlur> <feComposite in="SourceGraphic"></feComposite></filter></defs><g fill="none" fill-rule="nonzero" stroke="none" stroke-width="none" stroke-linecap="butt" stroke-linejoin="miter" stroke-miterlimit="10" stroke-dasharray="" stroke-dashoffset="0" font-family="none" font-weight="none" font-size="none" text-anchor="none" style="mix-blend-mode: normal"><path d="M2,24c0,-12.15026 9.84974,-22 22,-22c12.15026,0 22,9.84974 22,22c0,12.15026 -9.84974,22 -22,22c-12.15026,0 -22,-9.84974 -22,-22z" id="base 1 5" fill="#238199" stroke="none" stroke-width="1"></path><path d="M14.47891,17.05744l-0.00016,-0.00034c-0.37607,0.71772 -0.21424,2.07659 -0.21424,2.07659l1.86658,14.13225l12.28974,12.28974c8.27831,-1.68879 14.86514,-8.02667 16.91461,-16.16778l-14.65367,-14.65367l-0.03241,0.00428l-0.17771,-0.17771l-10.15037,1.34071c0,0 -3.34951,0.43852 -5.84236,1.15594z" fill="url(#color-1)" stroke="none" stroke-width="1"></path><path transform="translate(14.14479,14.47553) scale(0.04263,0.04263)" d="M387.896,6.068l25.595,193.78c0,0 4.17693,34.56083 13.51342,74.60184c5.95482,17.3468 13.65083,35.32069 23.49698,51.36016c-2.01517,2.42802 -4.11551,4.79204 -6.29354,7.09368c4.76078,12.63045 10.12565,24.34565 16.12914,34.12432c-77.612,32.186 -215.04,52.194 -215.04,52.194l-193.78,25.595l-0.61202,-4.63375l-4.31358,0.56975l-43.783,-331.49c0,0 -3.796,-31.874 5.0252,-48.709l0.0038,0.008c58.473,-16.828 137.04,-27.114 137.04,-27.114l238.09,-31.448l0.61261,4.63808z" fill="none" stroke="none" stroke-width="0"></path><g clip-path="url(#clip-1)"><g stroke-width="4"><path d="M11.00842,16.65143c2.17311,-0.84532 5.73578,-1.28384 5.73578,-1.28384l10.15037,-1.34071l1.09118,8.26133c0,0 0.583,4.82387 1.99716,7.1273c-3.30879,1.37217 -9.1677,2.22516 -9.1677,2.22516l-8.26133,1.09118l-1.86658,-14.13225c0,0 -0.29754,-1.12742 0.32082,-1.94869z" fill-opacity="0.392" fill="#000000" stroke="none"></path><path d="M10.69172,16.35011c2.49285,-0.71742 5.84236,-1.15594 5.84236,-1.15594l10.15037,-1.34071l1.09118,8.26133c0,0 0.37377,3.23977 1.78796,5.54351c-2.69403,3.24595 -8.95837,3.80913 -8.95837,3.80913l-8.26133,1.09118l-1.86658,-14.13225c0,0 -0.16183,-1.35887 0.21424,-2.07659z" fill="url(#color-2)" stroke="#000000"></path></g></g><path d="M2,24c0,-12.15026 9.84974,-22 22,-22c12.15026,0 22,9.84974 22,22c0,12.15026 -9.84974,22 -22,22c-12.15026,0 -22,-9.84974 -22,-22z" id="base 1 1 1" fill="none" stroke="none" stroke-width="1"></path><g fill="#000000" stroke="none" stroke-width="4" font-family="Roboto, sans-serif" font-weight="normal" font-size="14" text-anchor="start"><g></g></g><rect x="2" y="2" width="44" height="22" fill="none" stroke="none" stroke-width="1"></rect><path d="M2,24v-22h44v22z" fill="none" stroke="none" stroke-width="1"></path><path d="M2,24v-22h44v22z" fill="none" stroke="none" stroke-width="1"></path><path d="M2,24v-22h44v22z" fill="none" stroke="none" stroke-width="1"></path><path d="M2,24v-22h44v22z" fill="none" stroke="none" stroke-width="1"></path></g></svg>